<svg width="227" height="230" viewBox="0 0 227 230" fill="none" xmlns="http://www.w3.org/2000/svg">
<line x1="6" y1="65.3146" x2="6.00001" y2="208" stroke="black" stroke-width="6"/>
<line y1="-3" x2="127.933" y2="-3" transform="matrix(0.867643 -0.497188 0.867643 0.497188 6 67.6067)" stroke="black" stroke-width="6"/>
<line x1="1.5" y1="63" x2="1.5" y2="66" stroke="white" stroke-width="3"/>
<line y1="-3" x2="142.685" y2="-3" transform="matrix(-7.62807e-08 1 1 2.50481e-08 224 65.3146)" stroke="black" stroke-width="6"/>
<line y1="-3" x2="127.933" y2="-3" transform="matrix(-0.867643 -0.497188 -0.867643 0.497188 221 67.6067)" stroke="black" stroke-width="6"/>
<line x1="225.5" y1="63" x2="225.5" y2="66" stroke="white" stroke-width="3"/>
<line x1="6" y1="205" x2="221" y2="205" stroke="black" stroke-width="6"/>
<path d="M73.373 113.86H77.8818L77.8291 127.413H73.0039V118H50.3281V127.439H45.4766L45.4502 113.86H48.2715C49.502 112.296 50.5039 109.94 51.2773 106.794C52.0684 103.647 52.5693 100.132 52.7803 96.2471L53.5186 79.6094H73.373V113.86ZM53.4131 113.86H68.5215V83.7754H58.2119L57.6582 96.168C57.4473 100.229 56.9639 103.735 56.208 106.688C55.4521 109.624 54.5205 112.015 53.4131 113.86ZM100.531 118V103.05H93.8867L87.2686 118H82.127L89.6416 101.573C85.458 99.6221 83.3662 96.1592 83.3662 91.1846C83.3662 87.5811 84.3682 84.7598 86.3721 82.7207C88.3936 80.6641 91.2148 79.627 94.8359 79.6094H105.383V118H100.531ZM88.2178 91.1846C88.2178 93.5049 88.7979 95.3682 89.958 96.7744C91.1182 98.1631 92.7441 98.875 94.8359 98.9102H100.531V83.7754H94.8887C92.709 83.7754 91.0479 84.4346 89.9053 85.7529C88.7803 87.0713 88.2178 88.8818 88.2178 91.1846ZM139.396 113.86H143.905L143.853 127.413H139.027V118H116.352V127.439H111.5L111.474 113.86H114.295C115.525 112.296 116.527 109.94 117.301 106.794C118.092 103.647 118.593 100.132 118.804 96.2471L119.542 79.6094H139.396V113.86ZM119.437 113.86H134.545V83.7754H124.235L123.682 96.168C123.471 100.229 122.987 103.735 122.231 106.688C121.476 109.624 120.544 112.015 119.437 113.86ZM166.555 118V103.05H159.91L153.292 118H148.15L155.665 101.573C151.481 99.6221 149.39 96.1592 149.39 91.1846C149.39 87.5811 150.392 84.7598 152.396 82.7207C154.417 80.6641 157.238 79.627 160.859 79.6094H171.406V118H166.555ZM154.241 91.1846C154.241 93.5049 154.821 95.3682 155.981 96.7744C157.142 98.1631 158.768 98.875 160.859 98.9102H166.555V83.7754H160.912C158.732 83.7754 157.071 84.4346 155.929 85.7529C154.804 87.0713 154.241 88.8818 154.241 91.1846ZM72.2129 168.818C72.002 172.932 70.8418 176.078 68.7324 178.258C66.6406 180.438 63.6787 181.527 59.8467 181.527C55.9971 181.527 52.9385 180.068 50.6709 177.15C48.4033 174.215 47.2695 170.242 47.2695 165.232V158.271C47.2695 153.279 48.4297 149.333 50.75 146.433C53.0879 143.532 56.2695 142.082 60.2949 142.082C64.0039 142.082 66.8691 143.198 68.8906 145.431C70.9297 147.646 72.0371 150.818 72.2129 154.949H67.335C67.124 151.82 66.4648 149.588 65.3574 148.252C64.25 146.916 62.5625 146.248 60.2949 146.248C57.6758 146.248 55.6631 147.276 54.2568 149.333C52.8506 151.372 52.1475 154.369 52.1475 158.324V165.364C52.1475 169.249 52.7979 172.229 54.0986 174.303C55.417 176.377 57.333 177.414 59.8467 177.414C62.3604 177.414 64.1709 176.79 65.2783 175.542C66.3857 174.294 67.0713 172.053 67.335 168.818H72.2129ZM96.6816 170.98H83.709L80.7295 181H75.7725L88.1387 142.609H92.2783L104.671 181H99.7139L96.6816 170.98ZM84.9746 166.814H95.4424L90.1953 149.359L84.9746 166.814ZM114.98 142.609V176.86H125.396V142.609H130.194V176.86H140.53V142.609H145.382V181H110.129V142.609H114.98ZM172.25 170.98H159.277L156.298 181H151.341L163.707 142.609H167.847L180.239 181H175.282L172.25 170.98ZM160.543 166.814H171.011L165.764 149.359L160.543 166.814Z" fill="black"/>
<path d="M4.93599 215.123L7.77485 223.998L10.6137 215.123H12.3768V226H11.0097V221.764L11.1367 217.521L8.29033 226H7.24443L4.41304 217.551L4.54004 221.764V226H3.1729V215.123H4.93599ZM19.9446 223.161H16.269L15.4249 226H14.0204L17.5241 215.123H18.697L22.2083 226H20.8038L19.9446 223.161ZM16.6276 221.981H19.5935L18.1068 217.035L16.6276 221.981ZM30.4186 222.549C30.3588 223.714 30.0301 224.605 29.4324 225.223C28.8397 225.841 28.0005 226.149 26.9148 226.149C25.8241 226.149 24.9575 225.736 24.315 224.909C23.6725 224.078 23.3513 222.952 23.3513 221.533V219.56C23.3513 218.146 23.68 217.028 24.3374 216.206C24.9998 215.384 25.9013 214.973 27.0418 214.973C28.0927 214.973 28.9045 215.29 29.4772 215.922C30.055 216.55 30.3688 217.449 30.4186 218.619H29.0365C28.9767 217.732 28.7899 217.1 28.4762 216.721C28.1624 216.343 27.6843 216.154 27.0418 216.154C26.2997 216.154 25.7294 216.445 25.331 217.028C24.9326 217.605 24.7334 218.455 24.7334 219.575V221.57C24.7334 222.671 24.9176 223.515 25.2862 224.102C25.6597 224.69 26.2026 224.984 26.9148 224.984C27.627 224.984 28.14 224.807 28.4538 224.454C28.7675 224.1 28.9618 223.465 29.0365 222.549H30.4186ZM38.4122 216.303H35.5509V226H34.1838V216.303H31.33V215.123H38.4122V216.303ZM45.233 220.972H41.3855V224.827H45.868V226H40.0184V215.123H45.7933V216.303H41.3855V219.799H45.233V220.972ZM48.9907 221.742V226H47.6236V215.123H51.09C52.101 215.123 52.8954 215.426 53.4731 216.034C54.0509 216.637 54.3397 217.441 54.3397 218.447C54.3397 219.493 54.0633 220.3 53.5105 220.868C52.9626 221.43 52.1882 221.722 51.1871 221.742H48.9907ZM48.9907 220.569H51.09C51.6976 220.569 52.1633 220.387 52.487 220.023C52.8107 219.66 52.9726 219.139 52.9726 218.462C52.9726 217.81 52.8058 217.287 52.4721 216.893C52.1384 216.5 51.6802 216.303 51.0975 216.303H48.9907V220.569ZM64.6941 223.161H61.0186L60.1744 226H58.7699L62.2736 215.123H63.4465L66.9578 226H65.5533L64.6941 223.161ZM61.3772 221.981H64.343L62.8564 217.035L61.3772 221.981ZM75.564 215.123V226H74.1894V216.303H71.1488L70.9845 220.875C70.9247 222.21 70.7977 223.228 70.6035 223.931C70.4092 224.633 70.1253 225.151 69.7518 225.485C69.3783 225.818 68.8877 225.99 68.2801 226H67.8617V224.827L68.1157 224.812C68.4793 224.782 68.7632 224.643 68.9674 224.394C69.1716 224.14 69.326 223.739 69.4306 223.191C69.5352 222.643 69.6099 221.806 69.6547 220.681L69.834 215.123H75.564ZM83.214 220.972H79.3666V224.827H83.849V226H77.9995V215.123H83.7743V216.303H79.3666V219.799H83.214V220.972ZM88.07 221.114H87.039V226H85.6719V215.123H87.039V219.919H87.8757L90.9387 215.123H92.642L89.1906 220.382L92.896 226H91.2226L88.07 221.114ZM100.763 222.549C100.703 223.714 100.374 224.605 99.7766 225.223C99.1839 225.841 98.3447 226.149 97.2589 226.149C96.1682 226.149 95.3016 225.736 94.6591 224.909C94.0167 224.078 93.6954 222.952 93.6954 221.533V219.56C93.6954 218.146 94.0241 217.028 94.6815 216.206C95.3439 215.384 96.2454 214.973 97.3859 214.973C98.4368 214.973 99.2486 215.29 99.8214 215.922C100.399 216.55 100.713 217.449 100.763 218.619H99.3806C99.3208 217.732 99.1341 217.1 98.8203 216.721C98.5065 216.343 98.0284 216.154 97.3859 216.154C96.6438 216.154 96.0736 216.445 95.6751 217.028C95.2767 217.605 95.0775 218.455 95.0775 219.575V221.57C95.0775 222.671 95.2618 223.515 95.6303 224.102C96.0039 224.69 96.5467 224.984 97.2589 224.984C97.9711 224.984 98.4841 224.807 98.7979 224.454C99.1117 224.1 99.3059 223.465 99.3806 222.549H100.763ZM107.696 223.161H104.02L103.176 226H101.771L105.275 215.123H106.448L109.959 226H108.555L107.696 223.161ZM104.379 221.981H107.344L105.858 217.035L104.379 221.981ZM118.558 226H117.183V220.972H112.805V226H111.438V215.123H112.805V219.799H117.183V215.123H118.558V226ZM128.24 224.827H129.517L129.502 228.667H128.135V226H121.711V228.675H120.336L120.328 224.827H121.128C121.476 224.384 121.76 223.716 121.979 222.825C122.204 221.933 122.346 220.937 122.405 219.837L122.615 215.123H128.24V224.827ZM122.585 224.827H126.865V216.303H123.944L123.787 219.814C123.728 220.965 123.591 221.958 123.377 222.795C123.162 223.627 122.898 224.304 122.585 224.827ZM132.558 221.742V226H131.191V215.123H134.657C135.668 215.123 136.463 215.426 137.04 216.034C137.618 216.637 137.907 217.441 137.907 218.447C137.907 219.493 137.631 220.3 137.078 220.868C136.53 221.43 135.755 221.722 134.754 221.742H132.558ZM132.558 220.569H134.657C135.265 220.569 135.731 220.387 136.054 220.023C136.378 219.66 136.54 219.139 136.54 218.462C136.54 217.81 136.373 217.287 136.039 216.893C135.706 216.5 135.247 216.303 134.665 216.303H132.558V220.569ZM147.895 216.213H148.082C148.754 216.218 149.375 216.41 149.942 216.789C150.515 217.167 150.961 217.69 151.28 218.357C151.598 219.02 151.758 219.762 151.758 220.584C151.758 221.41 151.598 222.16 151.28 222.832C150.961 223.5 150.518 224.025 149.95 224.409C149.382 224.787 148.757 224.979 148.075 224.984H147.895V226.448H146.573V224.984H146.394C145.706 224.984 145.079 224.795 144.511 224.416C143.943 224.038 143.5 223.512 143.181 222.84C142.863 222.168 142.703 221.42 142.703 220.599C142.703 219.772 142.863 219.022 143.181 218.35C143.505 217.678 143.948 217.155 144.511 216.781C145.079 216.403 145.709 216.213 146.401 216.213H146.573V214.674H147.895V216.213ZM146.394 217.341C145.657 217.341 145.074 217.628 144.646 218.201C144.222 218.773 144.011 219.573 144.011 220.599C144.011 221.62 144.22 222.417 144.638 222.989C145.056 223.557 145.637 223.843 146.379 223.848H146.573V217.341H146.394ZM147.895 217.341V223.848H148.067C148.809 223.848 149.389 223.557 149.808 222.974C150.231 222.392 150.443 221.595 150.443 220.584C150.443 219.598 150.236 218.816 149.823 218.238C149.414 217.655 148.847 217.356 148.119 217.341H147.895ZM159.213 215.123H160.581V226H159.213V217.618L154.978 226H153.603V215.123H154.978V223.505L159.213 215.123ZM170.143 215.123V226H168.769V216.303H165.728L165.564 220.875C165.504 222.21 165.377 223.228 165.183 223.931C164.988 224.633 164.704 225.151 164.331 225.485C163.957 225.818 163.467 225.99 162.859 226H162.441V224.827L162.695 224.812C163.058 224.782 163.342 224.643 163.546 224.394C163.751 224.14 163.905 223.739 164.01 223.191C164.114 222.643 164.189 221.806 164.234 220.681L164.413 215.123H170.143ZM173.908 219.56H176.105C177.081 219.565 177.845 219.852 178.398 220.419C178.951 220.982 179.227 221.759 179.227 222.75C179.227 223.746 178.946 224.538 178.383 225.126C177.825 225.709 177.051 226 176.06 226H172.541V215.123H173.908V219.56ZM173.908 220.741V224.827H176.09C176.648 224.827 177.081 224.635 177.39 224.252C177.698 223.868 177.853 223.363 177.853 222.735C177.853 222.118 177.698 221.632 177.39 221.279C177.086 220.92 176.655 220.741 176.097 220.741H173.908ZM187.595 215.123V226H186.22V221.503C185.463 221.762 184.659 221.891 183.807 221.891C182.766 221.891 181.992 221.625 181.484 221.092C180.976 220.559 180.712 219.747 180.692 218.656V215.123H182.066V218.582C182.071 219.344 182.206 219.889 182.47 220.218C182.734 220.546 183.179 220.711 183.807 220.711C184.589 220.711 185.393 220.579 186.22 220.315V215.123H187.595ZM195.23 220.972H191.382V224.827H195.865V226H190.015V215.123H195.79V216.303H191.382V219.799H195.23V220.972ZM204.74 226H203.365V220.972H198.988V226H197.62V215.123H198.988V219.799H203.365V215.123H204.74V226ZM209.573 221.114H208.543V226H207.175V215.123H208.543V219.919H209.379L212.442 215.123H214.146L210.694 220.382L214.4 226H212.726L209.573 221.114ZM222.52 221.518C222.52 223.002 222.204 224.145 221.571 224.947C220.939 225.748 220.04 226.149 218.875 226.149C217.754 226.149 216.867 225.761 216.215 224.984C215.567 224.202 215.231 223.099 215.206 221.674V219.627C215.206 218.173 215.528 217.035 216.17 216.213C216.813 215.387 217.709 214.973 218.86 214.973C220.005 214.973 220.897 215.369 221.534 216.161C222.177 216.948 222.505 218.074 222.52 219.538V221.518ZM221.153 219.613C221.153 218.462 220.964 217.608 220.585 217.05C220.212 216.487 219.637 216.206 218.86 216.206C218.108 216.206 217.537 216.49 217.149 217.058C216.765 217.625 216.571 218.462 216.566 219.568V221.518C216.566 222.628 216.758 223.475 217.141 224.058C217.53 224.64 218.108 224.932 218.875 224.932C219.642 224.932 220.209 224.663 220.578 224.125C220.946 223.587 221.138 222.763 221.153 221.652V219.613Z" fill="black"/>
</svg>
